# xmcd
#
# Track frame offsets:
#	150
#	16142
#	30531
#	45344
#	57687
#	71533
#	84721
#	100558
#	113307
#	128923
#	140205
#	150293
#	165261
#	176413
#	192291
#	207359
#	226613
#	241007
#	258489
#	270551
#	286174
#	306066
#	320743
#
# Disc length: 4444 seconds
# Revision: 1
# Processed by: cddbd v1.5.2PL0 Copyright (c) Steve Scherf et al.
# Submitted via: dBpowerAMP V12.0
#
DISCID=27115a17
DTITLE=Mikko Alatalo - Kantri 1 Ja 2 Parhaat
DYEAR=2013
DGENRE=Country
TTITLE0=Vielä Maalaispoika Oon
TTITLE1=Kiiminkijoen Rannalla
TTITLE2=Peninkulmin Pohjanmaata
TTITLE3=Levoton Mies (duetto Kari Vepsä)
TTITLE4=Hehtaareittan Sydänsuruja (Jussi Syren and Groundbreakers)
TTITLE5=Pikkuriikki
TTITLE6=Tyttö Pohjanmaan
TTITLE7=Kiiminki-Helsinki Rock'n Roll (duetto Jussi Raittinen)
TTITLE8=Maaseutu Ja Pohjoinen
TTITLE9=Pirunviulu (erikoisolisti Janne Viksten)
TTITLE10=Kaupunkicowboy (duetto Pekka Myllykoski)
TTITLE11=Suomi-Neito (Jussi Syren and Groundbreakers)
TTITLE12=Maalaistytöt Valtaa Kaupungin
TTITLE13=Jos Sua Ei Ois
TTITLE14=Kuka Huijaa Nyt?
TTITLE15=Onnen Opastenuolet
TTITLE16=Keikkamiehen Tie (Groundbreakers and Eino Grön, Reijo Taipale, Markus Allan, Esko Rahkonen)
TTITLE17=Tuleeko Tästä Mitään?
TTITLE18=Kuinkahan Mun Kotiväki Voi  (Jussi Syren and Groundbreakers)
TTITLE19=Liha- Ja Perunamies (duetto Heikki Kinnunen)
TTITLE20=Kotikylän Pikitie
TTITLE21=Ihminen On Ihmiselle Susi
TTITLE22=Lättähattublues (Vanha Isäntä)
EXTD=
EXTT0=
EXTT1=
EXTT2=
EXTT3=
EXTT4=
EXTT5=
EXTT6=
EXTT7=
EXTT8=
EXTT9=
EXTT10=
EXTT11=
EXTT12=
EXTT13=
EXTT14=
EXTT15=
EXTT16=
EXTT17=
EXTT18=
EXTT19=
EXTT20=
EXTT21=
EXTT22=
PLAYORDER=
